# xmcd CD database file
#
# Track frame offsets:
#	150
#	29273
#	58046
#	88830
#	113496
#	144842
#	173748
#	203055
#	240212
#	272077
#
# Disc length: 4019 seconds
#
# Revision: 0
# Processed by: cddbd v1.5.2PL0 Copyright (c) Steve Scherf et al.
# Submitted via: jetAudio 7
#
DISCID=7a0fb10a
DTITLE=David Mooney - Perrier Street
DYEAR=1900
DGENRE=Jazz
TTITLE0=Perrier St
TTITLE1=First World Death March
TTITLE2=Miles Between
TTITLE3=All of Her
TTITLE4=Swingset
TTITLE5=Central Supply
TTITLE6=Crimson
TTITLE7=Phella
TTITLE8=Once Was True
TTITLE9=Last Days
EXTD=
EXTT0=
EXTT1=
EXTT2=
EXTT3=
EXTT4=
EXTT5=
EXTT6=
EXTT7=
EXTT8=
EXTT9=
PLAYORDER=
